{
  "accessors": [
    {
      "bufferView": 1,
      "componentType": 5126,
      "count": 560,
      "max": [
        0.36175501346588135,
        0.11435809731483459,
        0.44237101078033447
      ],
      "min": [
        -0.37058821320533752,
        -0.1651570051908493,
        -0.33216050267219543
      ],
      "type": "VEC3"
    },
    {
      "bufferView": 1,
      "byteOffset": 6720,
      "componentType": 5126,
      "count": 560,
      "max": [
        0.9998670220375061,
        0.9985395073890686,
        0.99840927124023438
      ],
      "min": [
        -0.9998670220375061,
        -0.9985395073890686,
        -0.99840927124023438
      ],
      "type": "VEC3"
    },
    {
      "bufferView": 0,
      "componentType": 5125,
      "count": 924,
      "max": [
        559
      ],
      "min": [
        0
      ],
      "type": "SCALAR"
    },
    {
      "bufferView": 1,
      "byteOffset": 13440,
      "componentType": 5126,
      "count": 648,
      "max": [
        0.080111660063266754,
        0.11277730017900467,
        0.31297770142555237
      ],
      "min": [
        -0.067951247096061707,
        0.080529958009719849,
        0.19892729818820953
      ],
      "type": "VEC3"
    },
    {
      "bufferView": 1,
      "byteOffset": 21216,
      "componentType": 5126,
      "count": 648,
      "max": [
        0.78351902961730957,
        0.98974710702896118,
        0.9248582124710083
      ],
      "min": [
        -0.97060525417327881,
        -0.99819862842559814,
        -0.98955923318862915
      ],
      "type": "VEC3"
    },
    {
      "bufferView": 0,
      "byteOffset": 3696,
      "componentType": 5125,
      "count": 1140,
      "max": [
        647
      ],
      "min": [
        0
      ],
      "type": "SCALAR"
    },
    {
      "bufferView": 1,
      "byteOffset": 28992,
      "componentType": 5126,
      "count": 380,
      "max": [
        0.17582020163536072,
        0.077964536845684052,
        -0.18461039662361145
      ],
      "min": [
        -0.21949279308319092,
        -0.20589250326156616,
        -0.57607877254486084
      ],
      "type": "VEC3"
    },
    {
      "bufferView": 1,
      "byteOffset": 33552,
      "componentType": 5126,
      "count": 380,
      "max": [
        0.9999423623085022,
        0.99994522333145142,
        0.99949359893798828
      ],
      "min": [
        -0.9999423623085022,
        -0.99994522333145142,
        -0.99935340881347656
      ],
      "type": "VEC3"
    },
    {
      "bufferView": 0,
      "byteOffset": 8256,
      "componentType": 5125,
      "count": 576,
      "max": [
        379
      ],
      "min": [
        0
      ],
      "type": "SCALAR"
    },
    {
      "bufferView": 1,
      "byteOffset": 38112,
      "componentType": 5126,
      "count": 351,
      "max": [
        0.3488616943359375,
        0.068930730223655701,
        0.14960749447345734
      ],
      "min": [
        -0.34740391373634338,
        -0.19744129478931427,
        -0.20848430693149567
      ],
      "type": "VEC3"
    },
    {
      "bufferView": 1,
      "byteOffset": 42324,
      "componentType": 5126,
      "count": 351,
      "max": [
        0.9987456202507019,
        0.99592351913452148,
        0.99793040752410889
      ],
      "min": [
        -0.99705272912979126,
        -0.99592357873916626,
        -0.99864530563354492
      ],
      "type": "VEC3"
    },
    {
      "bufferView": 0,
      "byteOffset": 10560,
      "componentType": 5125,
      "count": 564,
      "max": [
        350
      ],
      "min": [
        0
      ],
      "type": "SCALAR"
    }
  ],
  "asset": {
    "extras": {
      "author": "alban (https://sketchfab.com/alban)",
      "license": "CC-BY-4.0 (http://creativecommons.org/licenses/by/4.0/)",
      "source": "https://sketchfab.com/models/0278450d1e324c33904e160e115f6fbd",
      "title": "Blocks Lego man"
    },
    "generator": "Sketchfab-3.47.8",
    "version": "2.0"
  },
  "bufferViews": [
    {
      "buffer": 0,
      "byteLength": 12816,
      "byteOffset": 0,
      "name": "floatBufferViews",
      "target": 34963
    },
    {
      "buffer": 0,
      "byteLength": 46536,
      "byteOffset": 12816,
      "byteStride": 12,
      "name": "floatBufferViews",
      "target": 34962
    }
  ],
  "buffers": [
    {
      "byteLength": 59352,
      "uri": "scene.bin"
    }
  ],
  "materials": [
    {
      "doubleSided": true,
      "emissiveFactor": [
        0,
        0,
        0
      ],
      "name": "mat12",
      "pbrMetallicRoughness": {
        "baseColorFactor": [
          1,
          0.92000000000000004,
          0.23000000000000001,
          1
        ],
        "metallicFactor": 0,
        "roughnessFactor": 0.59999999999999998
      }
    },
    {
      "doubleSided": true,
      "emissiveFactor": [
        0,
        0,
        0
      ],
      "name": "mat23",
      "pbrMetallicRoughness": {
        "baseColorFactor": [
          0.10000000000000001,
          0.10000000000000001,
          0.10000000000000001,
          1
        ],
        "metallicFactor": 0,
        "roughnessFactor": 0.59999999999999998
      }
    },
    {
      "doubleSided": true,
      "emissiveFactor": [
        0,
        0,
        0
      ],
      "name": "mat5",
      "pbrMetallicRoughness": {
        "baseColorFactor": [
          0.01,
          0.60999999999999999,
          0.90000000000000002,
          1
        ],
        "metallicFactor": 0,
        "roughnessFactor": 0.59999999999999998
      }
    },
    {
      "doubleSided": true,
      "emissiveFactor": [
        0,
        0,
        0
      ],
      "name": "mat8",
      "pbrMetallicRoughness": {
        "baseColorFactor": [
          0.95999999999999996,
          0.26000000000000001,
          0.20999999999999999,
          1
        ],
        "metallicFactor": 0,
        "roughnessFactor": 0.59999999999999998
      }
    }
  ],
  "meshes": [
    {
      "primitives": [
        {
          "attributes": {
            "NORMAL": 1,
            "POSITION": 0
          },
          "indices": 2,
          "material": 0,
          "mode": 4
        }
      ]
    },
    {
      "primitives": [
        {
          "attributes": {
            "NORMAL": 4,
            "POSITION": 3
          },
          "indices": 5,
          "material": 1,
          "mode": 4
        }
      ]
    },
    {
      "primitives": [
        {
          "attributes": {
            "NORMAL": 7,
            "POSITION": 6
          },
          "indices": 8,
          "material": 2,
          "mode": 4
        }
      ]
    },
    {
      "primitives": [
        {
          "attributes": {
            "NORMAL": 10,
            "POSITION": 9
          },
          "indices": 11,
          "material": 3,
          "mode": 4
        }
      ]
    }
  ],
  "nodes": [
    {
      "children": [
        1
      ],
      "name": "RootNode (gltf orientation matrix)",
      "rotation": [
        -0.70710678118654746,
        -0,
        -0,
        0.70710678118654757
      ]
    },
    {
      "children": [
        2
      ],
      "name": "RootNode (model correction matrix)"
    },
    {
      "children": [
        3,
        4,
        5,
        6
      ],
      "name": "model.obj.cleaner.materialmerger.gles"
    },
    {
      "mesh": 0,
      "name": ""
    },
    {
      "mesh": 1,
      "name": ""
    },
    {
      "mesh": 2,
      "name": ""
    },
    {
      "mesh": 3,
      "name": ""
    }
  ],
  "scene": 0,
  "scenes": [
    {
      "name": "OSG_Scene",
      "nodes": [
        0
      ]
    }
  ]
}

